<?xml version="1.0" encoding="utf-8"?>
<!-- Generator: Adobe Illustrator 16.0.4, SVG Export Plug-In . SVG Version: 6.00 Build 0)  -->
<!DOCTYPE svg PUBLIC "-//W3C//DTD SVG 1.1//EN" "http://www.w3.org/Graphics/SVG/1.1/DTD/svg11.dtd">
<svg version="1.1" id="Layer_1" xmlns="http://www.w3.org/2000/svg" xmlns:xlink="http://www.w3.org/1999/xlink" x="0px" y="0px"
	 width="65px" height="65px" viewBox="2.5 2.5 65 65" enable-background="new 2.5 2.5 65 65" xml:space="preserve">
<g>
	<path d="M26.354,48.139c-0.788,0.003-1.54,0.363-2.257,1.078l-0.791,0.791l4.558,4.559l0.801-0.803
		c0.703-0.701,1.044-1.464,1.022-2.283c-0.023-0.819-0.396-1.595-1.121-2.32C27.881,48.477,27.143,48.135,26.354,48.139z"/>
	<path d="M35,5C18.43,5,5,18.43,5,35s13.43,30,30,30c16.566,0,30-13.432,30-30C65,18.431,51.568,5,35,5z M36.277,17.514l6.503,3.505
		c0.353,0.191,0.639,0.383,0.862,0.572l0.032-0.03c-0.202-0.246-0.396-0.545-0.583-0.892l-3.494-6.475l1.694-1.694l4.712,9.668
		l-1.834,1.835l-9.638-4.742L36.277,17.514z M34.058,19.735l1.253,1.254l-0.602,0.602l4.684,4.683l0.602-0.601l1.254,1.254
		l-2.822,2.823l-1.253-1.256l0.6-0.601l-4.683-4.683l-0.601,0.602l-1.253-1.255L34.058,19.735z M26.595,27.196
		c2.555-2.554,4.999-2.664,7.336-0.326c1.12,1.119,1.666,2.362,1.637,3.729c-0.028,1.364-0.621,2.629-1.781,3.787l-2.549,2.548
		l-7.189-7.189L26.595,27.196z M17.68,30.391H21.7l8.04,8.042l-8.04,8.042H17.68l8.041-8.042L17.68,30.391z M30.105,54.953
		l-2.547,2.548l-7.19-7.191l2.547-2.547c2.555-2.555,4.999-2.664,7.335-0.325c1.121,1.119,1.667,2.361,1.639,3.727
		C31.859,52.529,31.266,53.792,30.105,54.953z M34.861,50.197l-7.191-7.19l4.148-4.147l1.319,1.319l-2.528,2.528l1.6,1.6
		l2.352-2.353l1.313,1.314l-2.352,2.352l1.645,1.645l2.692-2.693l1.313,1.315L34.861,50.197z M41.883,43.176l-9.637-4.745
		l1.744-1.744l6.505,3.507c0.351,0.19,0.639,0.38,0.86,0.568l0.03-0.028c-0.2-0.247-0.396-0.546-0.581-0.893l-3.494-6.474
		l1.692-1.694l4.714,9.667L41.883,43.176z M52.318,38.461h-4.021l-8.039-8.041l8.039-8.041h4.021l-8.041,8.041L52.318,38.461z"/>
	<path d="M32.348,33.199c0.701-0.703,1.041-1.463,1.019-2.285c-0.021-0.819-0.396-1.593-1.121-2.317
		c-0.685-0.686-1.421-1.026-2.21-1.023c-0.79,0.004-1.544,0.363-2.258,1.078l-0.793,0.792l4.56,4.56L32.348,33.199z"/>
</g>
</svg>
