<svg xmlns="http://www.w3.org/2000/svg" xmlns:xlink="http://www.w3.org/1999/xlink" version="1.1" x="0px" y="0px" width="60px" height="60px" viewBox="0 0 60 60" enable-background="new 0 0 60 60" xml:space="preserve">
<g>
	<path d="M30 0.514C13.716 0.5 0.5 13.7 0.5 30c0 16.3 13.2 29.5 29.5 29.486c16.285 0 29.486-13.202 29.486-29.486 C59.486 13.7 46.3 0.5 30 0.514z M38.624 29.998L33.156 30L33.15 50.016h-7.5V30h-5.005v-6.898L25.65 23.1l-0.009-4.063 c0-5.628 1.526-9.052 8.155-9.052h5.52v6.898h-3.45c-2.581 0-2.705 0.964-2.705 2.764L33.15 23.1h6.205L38.624 29.998z"/>
</g>
<g>
</g>
<g>
</g>
<g>
</g>
<g>
</g>
<g>
</g>
<g>
</g>
</svg>