<?xml version="1.0" encoding="utf-8"?>
<!-- Generator: Adobe Illustrator 16.0.4, SVG Export Plug-In . SVG Version: 6.00 Build 0)  -->
<!DOCTYPE svg PUBLIC "-//W3C//DTD SVG 1.1//EN" "http://www.w3.org/Graphics/SVG/1.1/DTD/svg11.dtd">
<svg version="1.1" id="Layer_1" xmlns="http://www.w3.org/2000/svg" xmlns:xlink="http://www.w3.org/1999/xlink" x="0px" y="0px"
	 width="65px" height="65px" viewBox="-2.5 -2.5 65 65" enable-background="new -2.5 -2.5 65 65" xml:space="preserve">
<g>
	<path d="M30.007,0.514C13.723,0.5,0.507,13.7,0.507,30s13.2,29.5,29.5,29.486c16.285,0,29.486-13.202,29.486-29.486
		C59.493,13.7,46.307,0.5,30.007,0.514z M38.631,29.998L33.163,30l-0.006,20.016h-7.5V30h-5.005v-6.898l5.005-0.002l-0.009-4.062
		c0-5.628,1.526-9.053,8.155-9.053h5.521v6.898h-3.45c-2.581,0-2.705,0.964-2.705,2.764L33.157,23.1h6.205L38.631,29.998z"/>
</g>
</svg>
