<?xml version="1.0" encoding="utf-8"?>
<!-- Generator: Adobe Illustrator 16.0.4, SVG Export Plug-In . SVG Version: 6.00 Build 0)  -->
<!DOCTYPE svg PUBLIC "-//W3C//DTD SVG 1.1//EN" "http://www.w3.org/Graphics/SVG/1.1/DTD/svg11.dtd">
<svg version="1.1" id="Layer_1" xmlns="http://www.w3.org/2000/svg" xmlns:xlink="http://www.w3.org/1999/xlink" x="0px" y="0px"
	 width="65px" height="65px" viewBox="-2.5 -2.5 65 65" enable-background="new -2.5 -2.5 65 65" xml:space="preserve">
<g>
	<path d="M30,0.514C13.715,0.5,0.5,13.7,0.5,30S13.7,59.5,30,59.486S59.486,46.3,59.5,30C59.486,13.7,46.3,0.5,30,0.514z
		 M50.758,36.207c-0.363,1.688-0.865,3.15-1.51,4.391c-0.643,1.238-1.461,2.326-2.451,3.301c-0.992,0.932-2.068,1.701-3.229,2.307
		c-1.16,0.604-2.484,1.094-3.973,1.467c-1.486,0.373-3.003,0.635-4.548,0.801c-1.547,0.149-3.243,0.225-5.094,0.225
		c-1.848,0-3.541-0.074-5.08-0.225c-1.539-0.148-3.051-0.41-4.537-0.783c-1.486-0.373-2.807-0.863-3.961-1.469
		c-1.154-0.604-2.223-1.373-3.207-2.306c-0.982-0.935-1.797-2.021-2.439-3.261c-0.645-1.239-1.143-2.702-1.498-4.391
		c-0.355-1.688-0.533-3.57-0.533-5.645c0-3.733,1.154-6.938,3.461-9.609c-0.133-0.344-0.25-0.755-0.354-1.232
		c-0.104-0.477-0.199-1.135-0.289-1.971c-0.088-0.836-0.051-1.807,0.111-2.913c0.162-1.104,0.457-2.23,0.887-3.382
		c0.074-0.03,0.189-0.056,0.344-0.078c0.156-0.021,0.508-0.004,1.1,0.101c0.592,0.104,1.143,0.199,1.8,0.402
		c0.645,0.2,1.5,0.601,2.6,1.165c1.074,0.601,2.2,1.3,3.4,2.2c2.025-0.612,4.807-1.253,8.342-1.253c3.538,0,6.299,0.6,8.299,1.253
		c1.185-0.881,2.31-1.608,3.373-2.184c1.064-0.576,1.935-0.96,2.607-1.154c0.672-0.194,1.262-0.328,1.764-0.403
		c0.504-0.074,0.865-0.09,1.088-0.045l0.332,0.067c0.431,1.1,0.701,2.3,0.9,3.399c0.154,1.101,0.2,2.101,0.1,2.925
		c-0.09,0.844-0.182,1.496-0.276,1.96c-0.097,0.464-0.211,0.874-0.345,1.199c2.308,2.7,3.5,5.9,3.5,9.609
		C51.301,32.6,51.1,34.5,50.8,36.207H50.758z"/>
	<path d="M41.072,27.373c-0.709-0.309-1.512-0.482-2.408-0.524c-0.895-0.041-1.748-0.033-2.562,0
		c-0.812,0.06-1.817,0.138-3.018,0.236c-1.197,0.101-2.232,0.149-3.105,0.149c-0.873,0-1.908-0.05-3.107-0.149
		c-1.197-0.1-2.203-0.178-3.016-0.236c-0.814-0.059-1.668-0.065-2.564-0.024c-0.895,0.041-1.693,0.217-2.396,0.5
		c-0.701,0.309-1.318,0.762-1.852,1.36c-1.775,1.966-2.662,4.153-2.662,6.567c0,1.4,0.1,2.7,0.4,3.8c0.295,1.101,0.7,2,1.1,2.785
		c0.449,0.7,1.1,1.399,1.9,1.896c0.812,0.5,1.6,0.9,2.4,1.201c0.8,0.299,1.744,0.5,3,0.662c1.205,0.199,2.3,0.299,3.2,0.286
		c0.945,0,2.1,0,3.6,0.05c1.5,0.049,2.65-0.017,3.605-0.05c0.955-0.032,2.033-0.129,3.24-0.286c1.205-0.158,2.188-0.38,2.948-0.662
		c0.763-0.283,1.552-0.685,2.365-1.199c0.812-0.517,1.445-1.148,1.896-1.896c0.451-0.75,0.824-1.678,1.121-2.785
		c0.295-1.107,0.443-2.369,0.443-3.783c0-2.414-0.89-4.602-2.662-6.566c-0.535-0.604-1.14-1.003-1.84-1.33H41.072z M22.012,37.988
		c-1.469,0-2.662-1.789-2.662-3.994S20.543,30,22,30c1.471,0,2.7,1.8,2.7,3.994c0,2.193-1.218,4.006-2.7,3.994H22.012z M32.42,42.1
		c-0.826,0.826-1.623,1.238-2.42,1.238s-1.594-0.412-2.418-1.238c-0.326-0.324-0.326-0.852,0-1.176c0.324-0.324,0.852-0.324,1.2,0
		c0.508,0.5,0.9,0.801,1.2,0.754c0.3-0.046,0.734-0.246,1.243-0.754c0.325-0.324,0.852-0.324,1.199,0
		C32.744,41.2,32.7,41.7,32.4,42.07L32.42,42.1z M37.988,37.988c-1.471,0-2.662-1.789-2.662-3.994S36.518,30,38,30
		s2.662,1.8,2.7,3.994c0.038,2.193-1.241,4.006-2.7,3.994H37.988z"/>
</g>
</svg>
