<svg xmlns="http://www.w3.org/2000/svg" xmlns:xlink="http://www.w3.org/1999/xlink" version="1.1" x="0px" y="0px" width="60px" height="60px" viewBox="0 0 60 60" enable-background="new 0 0 60 60" xml:space="preserve">
<g>
	<path d="M30 0.514C13.715 0.5 0.5 13.7 0.5 30c0 16.3 13.2 29.5 29.5 29.486S59.486 46.3 59.5 30 C59.486 13.7 46.3 0.5 30 0.514z M50.758 36.207c-0.363 1.688-0.865 3.15-1.51 4.391c-0.643 1.238-1.461 2.326-2.451 3.3 c-0.992 0.932-2.068 1.701-3.229 2.307c-1.16 0.604-2.484 1.094-3.973 1.467c-1.486 0.373-3.002 0.635-4.547 0.8 c-1.547 0.15-3.244 0.225-5.094 0.225c-1.848 0-3.541-0.074-5.08-0.225c-1.539-0.148-3.051-0.41-4.537-0.783 s-2.807-0.863-3.961-1.469c-1.154-0.604-2.223-1.373-3.207-2.305c-0.982-0.934-1.797-2.021-2.439-3.26 c-0.645-1.24-1.143-2.703-1.498-4.391s-0.533-3.57-0.533-5.645c0-3.733 1.154-6.937 3.461-9.609 c-0.133-0.344-0.25-0.755-0.354-1.232s-0.199-1.135-0.289-1.971c-0.088-0.836-0.051-1.807 0.111-2.913 c0.162-1.104 0.457-2.231 0.887-3.382c0.074-0.03 0.189-0.056 0.344-0.078c0.156-0.022 0.508-0.004 1.1 0.1 s1.143 0.2 1.8 0.403c0.645 0.2 1.5 0.6 2.6 1.165c1.074 0.6 2.2 1.3 3.4 2.2 c2.025-0.612 4.807-1.253 8.342-1.253c3.537 0 6.3 0.6 8.3 1.253c1.184-0.881 2.309-1.608 3.373-2.184s1.934-0.96 2.607-1.154 c0.672-0.194 1.262-0.328 1.764-0.403c0.504-0.074 0.865-0.09 1.088-0.045l0.332 0.067c0.43 1.1 0.7 2.3 0.9 3.4 c0.154 1.1 0.2 2.1 0.1 2.924c-0.09 0.844-0.182 1.497-0.277 1.96c-0.096 0.464-0.211 0.874-0.344 1.2 c2.307 2.7 3.5 5.9 3.5 9.609C51.301 32.6 51.1 34.5 50.8 36.207z"/>
	<path d="M41.072 27.373c-0.709-0.308-1.512-0.482-2.408-0.524c-0.895-0.041-1.748-0.033-2.562 0 c-0.812 0.059-1.818 0.138-3.018 0.236c-1.197 0.101-2.232 0.15-3.105 0.15s-1.908-0.05-3.107-0.15 c-1.197-0.099-2.203-0.178-3.016-0.236c-0.814-0.059-1.668-0.066-2.564-0.025c-0.895 0.041-1.693 0.217-2.396 0.5 c-0.701 0.309-1.318 0.762-1.852 1.361c-1.775 1.965-2.662 4.153-2.662 6.567c0 1.4 0.1 2.7 0.4 3.8 c0.295 1.1 0.7 2 1.1 2.785c0.449 0.7 1.1 1.4 1.9 1.896c0.812 0.5 1.6 0.9 2.4 1.2 s1.744 0.5 3 0.662c1.205 0.2 2.3 0.3 3.2 0.287c0.945 0 2.1 0 3.6 0.049s2.65-0.016 3.605-0.049 s2.033-0.129 3.24-0.287c1.205-0.158 2.189-0.379 2.949-0.662c0.762-0.283 1.551-0.684 2.365-1.199 c0.812-0.516 1.445-1.148 1.896-1.896c0.451-0.75 0.824-1.678 1.121-2.785c0.295-1.107 0.443-2.369 0.443-3.783 c0-2.414-0.889-4.602-2.662-6.567C42.404 28.1 41.8 27.7 41.1 27.373z M22.012 37.988c-1.469 0-2.662-1.789-2.662-3.994 S20.543 30 22 30c1.471 0 2.7 1.8 2.7 3.994S23.482 38 22 37.988z M32.42 42.1 c-0.826 0.826-1.623 1.238-2.42 1.238s-1.594-0.412-2.418-1.238c-0.326-0.324-0.326-0.852 0-1.176c0.324-0.324 0.852-0.324 1.2 0 c0.508 0.5 0.9 0.8 1.2 0.754s0.734-0.246 1.242-0.754c0.326-0.324 0.852-0.324 1.2 0 C32.744 41.2 32.7 41.7 32.4 42.07z M37.988 37.988c-1.471 0-2.662-1.789-2.662-3.994S36.518 30 38 30 s2.662 1.8 2.7 3.994S39.459 38 38 37.988z"/>
</g>
<g>
</g>
<g>
</g>
<g>
</g>
<g>
</g>
<g>
</g>
<g>
</g>
</svg>