<?xml version="1.0" encoding="utf-8"?>
<!-- Generator: Adobe Illustrator 16.0.4, SVG Export Plug-In . SVG Version: 6.00 Build 0)  -->
<!DOCTYPE svg PUBLIC "-//W3C//DTD SVG 1.1//EN" "http://www.w3.org/Graphics/SVG/1.1/DTD/svg11.dtd">
<svg version="1.1" id="Layer_1" xmlns="http://www.w3.org/2000/svg" xmlns:xlink="http://www.w3.org/1999/xlink" x="0px" y="0px"
	 width="65px" height="65px" viewBox="-2.5 -2.5 65 65" enable-background="new -2.5 -2.5 65 65" xml:space="preserve">
<g>
	<path d="M30,0.514C13.715,0.5,0.5,13.7,0.5,30S13.715,59.5,30,59.486S59.486,46.3,59.5,30S46.285,0.5,30,0.514z M20.322,46.682
		h-7.371V22.961h7.371V46.682z M16.592,20.049c-2.328,0-3.834-1.653-3.834-3.689c0-2.086,1.551-3.687,3.928-3.687
		c2.379,0,3.8,1.6,3.9,3.687C20.57,18.399,19.1,20,16.6,20.049H16.592z M47.242,46.682h-7.367V33.533
		c0-3.058-1.07-5.139-3.734-5.139c-2.037,0-3.246,1.406-3.785,2.765c-0.192,0.481-0.242,1.165-0.242,1.84v13.678h-7.375V30.523
		c0-2.96-0.096-5.436-0.193-7.565h6.399l0.343,3.295h0.144c0.971-1.551,3.35-3.83,7.325-3.83c4.853,0,8.5,3.2,8.5,10.229v14.029
		H47.242z"/>
</g>
</svg>
