<svg xmlns="http://www.w3.org/2000/svg" xmlns:xlink="http://www.w3.org/1999/xlink" version="1.1" x="0px" y="0px" width="60px" height="60px" viewBox="0 0 60 60" enable-background="new 0 0 60 60" xml:space="preserve">
<g>
	<path d="M30 0.514C13.715 0.5 0.5 13.7 0.5 30S13.715 59.5 30 59.486S59.486 46.3 59.5 30S46.285 0.5 30 0.514z M20.322 46.681h-7.371v-23.72h7.371V46.681z M16.592 20.049c-2.328 0-3.834-1.653-3.834-3.689c0-2.086 1.551-3.687 3.928-3.687 c2.379 0 3.8 1.6 3.9 3.687C20.57 18.4 19.1 20 16.6 20.049z M47.242 46.681h-7.367V33.533 c0-3.057-1.07-5.138-3.734-5.138c-2.037 0-3.246 1.406-3.785 2.764c-0.193 0.482-0.242 1.165-0.242 1.84v13.678h-7.375V30.523 c0-2.959-0.096-5.435-0.193-7.565h6.4l0.342 3.295h0.143c0.971-1.551 3.35-3.83 7.326-3.83c4.852 0 8.5 3.2 8.5 10.23V46.681 z"/>
</g>
<g>
</g>
<g>
</g>
<g>
</g>
<g>
</g>
<g>
</g>
<g>
</g>
</svg>