<?xml version="1.0" encoding="utf-8"?>
<!-- Generator: Adobe Illustrator 16.0.4, SVG Export Plug-In . SVG Version: 6.00 Build 0)  -->
<!DOCTYPE svg PUBLIC "-//W3C//DTD SVG 1.1//EN" "http://www.w3.org/Graphics/SVG/1.1/DTD/svg11.dtd">
<svg version="1.1" id="Layer_1" xmlns="http://www.w3.org/2000/svg" xmlns:xlink="http://www.w3.org/1999/xlink" x="0px" y="0px"
	 width="65px" height="65px" viewBox="5.887 5.6 65 65" enable-background="new 5.887 5.6 65 65" xml:space="preserve">
<path d="M38.388,8.1C21.82,8.097,8.387,21.53,8.387,38.098C8.387,54.667,21.82,68.1,38.388,68.1
	c16.567,0,29.999-13.431,29.999-29.999C68.387,21.53,54.956,8.097,38.388,8.1z M33.215,29.029l13.248,8.001l-1.736,2.875
	l-13.248-8.001L33.215,29.029z M29.605,36.563L44.5,40.768l-0.913,3.231l-14.894-4.204L29.605,36.563z M28.195,43.23l15.406,1.488
	l-0.323,3.341l-15.405-1.487L28.195,43.23z M27.835,49.125h15.395V52.4H27.835V49.125z M48.634,57.723H23.003l0.016-16.372
	l2.953,0.029L25.87,54.529h19.652V41.428h3.112V57.723z M47.036,36.425l-9.014-12.581l2.729-1.955l9.014,12.581l-2.729,1.96V36.425z
	 M50.461,34.292l-2.55-15.265l3.311-0.553l2.551,15.267L50.461,34.292z"/>
</svg>
