<svg xmlns="http://www.w3.org/2000/svg" xmlns:xlink="http://www.w3.org/1999/xlink" version="1.1" x="0px" y="0px" width="500px" height="500px" viewBox="0 0 500 500" enable-background="new 0 0 500 500" xml:space="preserve">
<style>
	.style0{
		fill:	#231F20;
	}
</style><path d="M250 7.921C116.303 7.9 7.9 116.3 7.9 250c0 133.7 108.4 242.1 242.1 242.1 c133.696 0 242.079-108.382 242.079-242.079C492.079 116.3 383.7 7.9 250 7.921z M208.26 176.818l106.9 64.568l-14.005 23.2 l-106.903-64.569L208.26 176.818z M179.125 237.614l120.196 33.925l-7.362 26.074l-120.191-33.926L179.125 237.614z M167.749 291.411l124.317 12.004l-2.605 26.962l-124.312-11.999L167.749 291.411z M164.839 338.976h124.229v26.438H164.839V338.976 z M332.683 408.362H125.852l0.131-132.115l23.827 0.233l-0.83 106.112h158.59V276.866h25.113V408.362z M319.782 236.5 l-72.738-101.522l22.022-15.778l72.743 101.521L319.782 236.541z M347.426 219.284L326.849 96.102l26.719-4.464l20.581 123.2 L347.426 219.284z" class="style0"/>
</svg>