<?xml version="1.0" encoding="utf-8"?>
<!-- Generator: Adobe Illustrator 16.0.4, SVG Export Plug-In . SVG Version: 6.00 Build 0)  -->
<!DOCTYPE svg PUBLIC "-//W3C//DTD SVG 1.1//EN" "http://www.w3.org/Graphics/SVG/1.1/DTD/svg11.dtd">
<svg version="1.1" id="Layer_1" xmlns="http://www.w3.org/2000/svg" xmlns:xlink="http://www.w3.org/1999/xlink" x="0px" y="0px"
	 width="70px" height="70px" viewBox="0 0 70 70" enable-background="new 0 0 70 70" xml:space="preserve">
<g>
	<path d="M35,5C18.432,5,5,18.432,5,35s13.432,30,30,30s30-13.432,30-30S51.568,5,35,5z M48.086,50.702
		c-0.201,1.593-1.246,2.328-2.449,2.971c-0.296-0.19-0.489-0.478-0.743-0.707c-0.549,0.757-0.741,2.01-1.669,2.375
		c-1.041,0.408-1.938-0.315-2.301-1.188c-0.242,0.547-0.449,1.174-0.964,1.595c-1.076,0.883-3.309,1.014-4.156,0.039
		c-0.288-0.335-0.459-0.835-0.557-1.3c-0.332,0.653-0.417,1.301-1.075,1.706c-1.01,0.623-2.971,0.294-3.785-0.445
		c-0.448-0.405-0.662-0.941-0.854-1.521c-0.402,0.438-0.588,1.018-1.15,1.225c-1.59,0.585-2.383-1.288-2.856-2.375
		c-0.31,0.196-0.522,0.491-0.78,0.742c-1.403-0.691-2.489-1.639-2.559-3.71c-0.08-2.332,0.413-5.39,1.298-6.976
		c0.087,3.04,0.801,5.639,2.523,7.123c0.49-0.276,0.891-0.642,1.373-0.926c0.629,0.421,1.035,1.066,1.596,1.558
		c0.048-0.311,0.114-0.604,0.185-0.891c1.138,0.014,2.728,0.124,4.081,0.259c0.865,0.088,1.624,0.007,1.93,0.594
		c0.174-0.069,0.241-0.366,0.408-0.444c0.316-0.149,0.925-0.092,1.374-0.149c1.285-0.161,2.88-0.292,4.191-0.333
		c0.091,0.257,0.194,0.499,0.187,0.854c0.625-0.401,0.984-1.069,1.521-1.56c0.517,0.263,0.936,0.624,1.408,0.93
		c1.706-1.486,2.495-3.887,2.413-7.162c0.897,1.333,1.348,3.844,1.445,6.011C48.149,49.613,48.151,50.179,48.086,50.702z
		 M40.94,42.482v-2.927h-2.925l2.925-1.463l2.928,1.463v2.927v2.926H40.94h-5.852h-2.926v-2.926V36.63v-2.923h2.926h5.852h2.928
		L40.94,36.63h-5.852v5.853H40.94z M29.236,30.777v17.555l-2.926-3.007V30.777h-2.926l2.911-2.926h17.573h2.925l-2.925,2.926H29.236
		z M52.982,25.293c-0.561,2.213-1.509,4.143-2.67,5.751c-0.614,0.846-1.228,1.674-2.043,2.151c0.548-2.385,0.609-5.257,0.187-7.754
		c-2.156-0.235-4.025-0.627-4.675-2.337c-0.165,0.306-0.337,0.602-0.446,0.965c-1.085,0.548-2.705,0.244-4.266,0.185
		c-1.217-0.044-2.455-0.122-3.525-0.296c-0.26-0.185-0.372-0.517-0.519-0.816c-0.169,0.276-0.297,0.593-0.482,0.853
		c-1.093,0.124-2.183,0.212-3.301,0.297c-1.442,0.11-3.226,0.379-4.49-0.075c-0.157-0.337-0.343-0.645-0.482-1.001
		c-0.729,1.599-2.41,2.186-4.675,2.338c-0.446,2.445-0.179,5.76,0.297,7.828c-0.955-0.565-1.777-1.589-2.449-2.634
		c-1.27-1.972-2.375-4.318-2.82-7.272c-0.229-1.521-0.351-3.107,0.631-3.896c0.284-0.227,0.938-0.391,1.484-0.259
		c0.789,0.189,1.16,0.865,1.818,1.261c0.39-1.41,0.994-2.869,2.522-3.191c1.524-0.32,2.791,0.65,3.413,1.559
		c0.379-1.215,0.631-2.627,1.929-3.042c0.987-0.314,2.502-0.411,3.674-0.371c0.673,0.024,1.377,0.135,1.78,0.371
		c1.354,0.794,0.754,3.066,1.113,4.712c0.308-1.918-0.234-4.33,1.373-4.897c0.532-0.188,1.146-0.192,1.633-0.222
		c1.704-0.107,4.135,0.135,4.785,1.335c0.343,0.631,0.338,1.241,0.632,2.004c0.739-0.817,1.751-1.919,3.488-1.559
		c1.491,0.311,2.099,1.649,2.449,3.154c0.769-0.656,2.217-2.001,3.412-0.965C54.07,20.607,53.423,23.555,52.982,25.293z"/>
</g>
<g>
</g>
<g>
</g>
<g>
</g>
<g>
</g>
<g>
</g>
<g>
</g>
</svg>
