<?xml version="1.0" encoding="utf-8"?>
<!-- Generator: Adobe Illustrator 16.0.4, SVG Export Plug-In . SVG Version: 6.00 Build 0)  -->
<!DOCTYPE svg PUBLIC "-//W3C//DTD SVG 1.1//EN" "http://www.w3.org/Graphics/SVG/1.1/DTD/svg11.dtd">
<svg version="1.1" id="Layer_1" xmlns="http://www.w3.org/2000/svg" xmlns:xlink="http://www.w3.org/1999/xlink" x="0px" y="0px"
	 width="65px" height="65px" viewBox="2.5 2.5 65 65" enable-background="new 2.5 2.5 65 65" xml:space="preserve">
<g>
	<path d="M35,5C18.432,5,5,18.432,5,35c0,16.568,13.432,30,30,30c16.568,0,30-13.432,30-30C65,18.432,51.568,5,35,5z M48.086,50.702
		c-0.201,1.593-1.246,2.327-2.449,2.971c-0.296-0.19-0.488-0.478-0.742-0.707c-0.549,0.757-0.742,2.011-1.67,2.375
		c-1.041,0.408-1.938-0.315-2.301-1.188c-0.242,0.548-0.449,1.175-0.964,1.596c-1.076,0.883-3.31,1.014-4.155,0.039
		c-0.289-0.335-0.459-0.835-0.558-1.301c-0.332,0.654-0.417,1.302-1.075,1.707c-1.01,0.623-2.971,0.293-3.785-0.445
		c-0.448-0.405-0.662-0.941-0.854-1.521c-0.402,0.438-0.588,1.019-1.15,1.226c-1.59,0.585-2.383-1.288-2.856-2.375
		c-0.31,0.196-0.522,0.491-0.78,0.741c-1.403-0.69-2.489-1.639-2.559-3.709c-0.08-2.332,0.413-5.391,1.298-6.977
		c0.087,3.04,0.801,5.639,2.523,7.123c0.49-0.275,0.891-0.642,1.373-0.926c0.629,0.421,1.035,1.066,1.596,1.559
		c0.048-0.312,0.114-0.604,0.185-0.892c1.138,0.015,2.728,0.124,4.081,0.259c0.865,0.088,1.624,0.008,1.93,0.594
		c0.174-0.068,0.241-0.365,0.408-0.443c0.316-0.149,0.925-0.092,1.374-0.149c1.285-0.161,2.88-0.292,4.19-0.333
		c0.092,0.258,0.194,0.499,0.188,0.854c0.625-0.4,0.984-1.068,1.521-1.56c0.517,0.263,0.936,0.624,1.408,0.931
		c1.705-1.486,2.494-3.887,2.412-7.162c0.897,1.332,1.348,3.844,1.445,6.011C48.148,49.613,48.15,50.18,48.086,50.702z
		 M40.939,42.482v-2.928h-2.924l2.924-1.463l2.929,1.463v2.928v2.926h-2.929h-5.852h-2.926v-2.926V36.63v-2.923h2.926h5.852h2.929
		l-2.929,2.923h-5.852v5.853H40.939L40.939,42.482z M29.236,30.777v17.555l-2.926-3.007V30.777h-2.926l2.911-2.926h17.573h2.925
		l-2.925,2.926H29.236z M52.982,25.293c-0.562,2.213-1.51,4.143-2.67,5.751c-0.614,0.846-1.229,1.674-2.043,2.151
		c0.547-2.385,0.608-5.257,0.187-7.754c-2.156-0.235-4.024-0.627-4.675-2.337c-0.165,0.306-0.338,0.602-0.446,0.965
		c-1.085,0.548-2.705,0.244-4.267,0.185c-1.217-0.044-2.455-0.122-3.524-0.296c-0.26-0.185-0.372-0.517-0.519-0.816
		c-0.169,0.276-0.297,0.593-0.482,0.853c-1.093,0.124-2.183,0.212-3.301,0.297c-1.442,0.11-3.226,0.379-4.49-0.075
		c-0.157-0.337-0.343-0.645-0.482-1.001c-0.729,1.599-2.41,2.186-4.675,2.338c-0.446,2.445-0.179,5.76,0.297,7.828
		c-0.955-0.565-1.777-1.589-2.449-2.634c-1.27-1.972-2.375-4.318-2.82-7.272c-0.229-1.521-0.351-3.107,0.631-3.896
		c0.284-0.227,0.938-0.391,1.484-0.259c0.789,0.189,1.16,0.865,1.818,1.261c0.39-1.41,0.994-2.869,2.522-3.191
		c1.524-0.32,2.791,0.65,3.413,1.559c0.379-1.215,0.631-2.627,1.929-3.042c0.987-0.314,2.502-0.411,3.674-0.371
		c0.673,0.024,1.377,0.135,1.78,0.371c1.354,0.794,0.754,3.066,1.113,4.712c0.308-1.918-0.234-4.33,1.373-4.897
		c0.533-0.188,1.146-0.192,1.634-0.222c1.704-0.107,4.135,0.135,4.784,1.335c0.344,0.631,0.339,1.241,0.633,2.004
		c0.738-0.817,1.751-1.919,3.488-1.559c1.49,0.311,2.099,1.649,2.449,3.154c0.769-0.656,2.217-2.001,3.411-0.965
		C54.07,20.607,53.423,23.555,52.982,25.293z"/>
</g>
</svg>
