<svg xmlns="http://www.w3.org/2000/svg" xmlns:xlink="http://www.w3.org/1999/xlink" version="1.1" x="0px" y="0px" width="60px" height="60px" viewBox="0 0 60 60" enable-background="new 0 0 60 60" xml:space="preserve">
<g>
	<path d="M30 0.514C13.716 0.5 0.5 13.7 0.5 30c0 16.3 13.2 29.5 29.5 29.486c16.285 0 29.486-13.202 29.486-29.486 C59.486 13.7 46.3 0.5 30 0.514z M46.977 21.293c0.016 0.4 0 0.8 0 1.134c0 11.574-8.811 24.921-24.922 24.9 c-4.946 0-9.55-1.449-13.427-3.936c0.686 0.1 1.4 0.1 2.1 0.123c4.104 0 7.88-1.4 10.877-3.749 c-3.832-0.072-7.066-2.604-8.182-6.083c0.536 0.1 1.1 0.2 1.6 0.156c0.799 0 1.572-0.106 2.308-0.307 c-4.007-0.806-7.026-4.346-7.026-8.589c0-0.037 0-0.074 0.001-0.11c1.181 0.7 2.5 1.1 4 1.1 c-2.351-1.57-3.897-4.252-3.897-7.291c0-1.605 0.433-3.11 1.187-4.403c4.32 5.3 10.8 8.8 18.1 9.2 c-0.149-0.642-0.227-1.311-0.227-1.997c0-4.836 3.922-8.758 8.758-8.758c2.52 0 4.8 1.1 6.4 2.8 c1.995-0.393 3.869-1.122 5.562-2.125c-0.654 2.045-2.043 3.761-3.852 4.846c1.771-0.212 3.459-0.684 5.03-1.379 C50.173 18.5 48.7 20.1 47 21.293z"/>
</g>
<g>
</g>
<g>
</g>
<g>
</g>
<g>
</g>
<g>
</g>
<g>
</g>
</svg>