<?xml version="1.0" encoding="utf-8"?>
<!-- Generator: Adobe Illustrator 16.0.4, SVG Export Plug-In . SVG Version: 6.00 Build 0)  -->
<!DOCTYPE svg PUBLIC "-//W3C//DTD SVG 1.1//EN" "http://www.w3.org/Graphics/SVG/1.1/DTD/svg11.dtd">
<svg version="1.1" id="Layer_1" xmlns="http://www.w3.org/2000/svg" xmlns:xlink="http://www.w3.org/1999/xlink" x="0px" y="0px"
	 width="65px" height="65px" viewBox="-2.5 -2.5 65 65" enable-background="new -2.5 -2.5 65 65" xml:space="preserve">
<g>
	<path d="M30.007,0.514C13.723,0.5,0.507,13.7,0.507,30s13.2,29.5,29.5,29.486c16.285,0,29.486-13.202,29.486-29.486
		C59.493,13.7,46.307,0.5,30.007,0.514z M46.983,21.293c0.017,0.399,0,0.8,0,1.134c0,11.574-8.811,24.921-24.921,24.9
		c-4.946,0-9.55-1.449-13.427-3.937c0.686,0.101,1.4,0.101,2.1,0.123c4.104,0,7.88-1.399,10.877-3.748
		c-3.832-0.072-7.066-2.604-8.182-6.084c0.536,0.101,1.1,0.2,1.6,0.156c0.799,0,1.572-0.105,2.308-0.307
		c-4.007-0.807-7.026-4.347-7.026-8.59c0-0.037,0-0.073,0.001-0.109c1.181,0.7,2.5,1.1,4,1.1c-2.351-1.57-3.897-4.252-3.897-7.291
		c0-1.604,0.433-3.109,1.187-4.403c4.32,5.301,10.8,8.801,18.1,9.2c-0.149-0.642-0.227-1.311-0.227-1.997
		c0-4.836,3.922-8.758,8.758-8.758c2.521,0,4.801,1.101,6.4,2.8c1.995-0.393,3.869-1.122,5.562-2.125
		c-0.654,2.045-2.043,3.762-3.853,4.847c1.771-0.212,3.459-0.685,5.03-1.379c-1.194,1.675-2.667,3.274-4.367,4.468H46.983z"/>
</g>
</svg>
